<svg width="63" height="69" viewBox="0 0 63 69" fill="none" xmlns="http://www.w3.org/2000/svg">
<path d="M60.5966 28.2289H2.59888M60.5966 36.2842V24.3624C60.5966 18.9488 60.5966 16.242 59.5431 14.1742C58.6163 12.3554 57.1376 10.8766 55.3187 9.9499C53.251 8.89634 50.5442 8.89634 45.1306 8.89634H18.0649C12.6513 8.89634 9.9445 8.89634 7.87676 9.9499C6.05793 10.8766 4.57918 12.3554 3.65244 14.1742C2.59888 16.242 2.59888 18.9488 2.59888 24.3624V51.428C2.59888 56.8417 2.59888 59.5485 3.65244 61.6162C4.57918 63.435 6.05793 64.9138 7.87676 65.8405C9.9445 66.8941 12.6513 66.8941 18.0649 66.8941H31.5977M44.4861 2.45215V15.3405M18.7094 2.45215V15.3405M39.653 57.2278L46.0972 63.672L60.5966 49.1726" stroke="#EE0E00" stroke-width="4" stroke-linecap="round" stroke-linejoin="round"/>
</svg>
